<svg width="536" height="352" viewBox="0 0 536 352" fill="none" xmlns="http://www.w3.org/2000/svg">
<path d="M443.58 90.8545C467.678 140.548 408.604 218.954 311.634 265.978C214.664 313.003 116.518 310.839 92.4198 261.145C68.3215 211.452 127.396 133.046 224.366 86.0217C321.336 38.9972 419.482 41.1609 443.58 90.8545Z" fill="#E1AEA4"/>
<path d="M241.471 275.007C308.383 292.936 371.977 298.354 420.748 292.537C445.126 289.629 465.933 283.9 481.619 275.417C497.312 266.931 508.087 255.566 511.896 241.352C515.705 227.137 512.056 211.907 502.708 196.712C493.364 181.523 478.21 166.157 458.552 151.45C419.224 122.027 361.441 94.9216 294.529 76.9926C227.617 59.0636 164.023 53.6464 115.252 59.4632C90.874 62.3707 70.0674 68.1004 54.3806 76.5828C38.6875 85.0686 27.9125 96.4336 24.1037 110.648C20.2949 124.863 23.9439 140.093 33.2916 155.288C42.6355 170.477 57.7897 185.843 77.448 200.55C116.776 229.973 174.559 257.078 241.471 275.007Z" fill="#CB7CA2" stroke="#E1AEA4" stroke-width="5"/>
<path d="M149.062 197.056C148.849 196.288 148.55 195.328 148.166 194.176C147.782 193.067 147.356 191.936 146.886 190.784C146.46 189.632 145.99 188.629 145.478 187.776L145.67 187.392C146.225 187.221 146.758 187.072 147.27 186.944C150.684 184.085 153.905 181.141 156.934 178.112C160.006 175.04 162.822 172.053 165.382 169.152C167.985 166.251 170.246 163.605 172.166 161.216C174.129 158.784 175.686 156.779 176.838 155.2C178.033 153.621 178.758 152.64 179.014 152.256C179.185 151.957 179.334 151.723 179.462 151.552C179.59 151.339 179.676 151.189 179.718 151.104C179.633 151.104 179.462 151.104 179.206 151.104C178.993 151.061 178.63 151.04 178.118 151.04C177.222 151.04 175.708 151.104 173.574 151.232C171.441 151.36 168.924 151.552 166.022 151.808C163.121 152.021 160.07 152.299 156.87 152.64C153.67 152.981 150.556 153.387 147.526 153.856L146.182 142.72C150.022 142.165 153.948 141.717 157.958 141.376C162.012 140.992 165.894 140.715 169.606 140.544C173.361 140.331 176.71 140.224 179.654 140.224C181.062 140.224 182.556 140.288 184.134 140.416C185.713 140.544 187.164 140.821 188.486 141.248C189.852 141.675 190.961 142.379 191.814 143.36C192.668 144.299 193.094 145.6 193.094 147.264C193.094 149.781 191.9 152.747 189.51 156.16C187.036 159.787 184.348 163.328 181.446 166.784C178.588 170.197 175.729 173.397 172.87 176.384C170.054 179.371 167.452 182.016 165.062 184.32C166.598 184.235 168.156 184.192 169.734 184.192C171.356 184.149 172.998 184.128 174.662 184.128C178.46 184.128 182.065 184.256 185.478 184.512C188.892 184.725 191.878 185.067 194.438 185.536L192.518 196.544C189.617 196.075 186.417 195.733 182.918 195.52C179.462 195.349 175.942 195.264 172.358 195.264C168.22 195.264 164.124 195.413 160.07 195.712C156.017 196.011 152.348 196.459 149.062 197.056ZM216.542 197.056C213.342 197.056 210.441 196.224 207.838 194.56C205.236 192.939 203.166 190.741 201.63 187.968C200.137 185.152 199.39 182.016 199.39 178.56C199.39 175.317 199.988 172.395 201.182 169.792C202.377 167.147 203.998 164.885 206.046 163.008C208.137 161.131 210.505 159.701 213.15 158.72C215.796 157.696 218.569 157.184 221.47 157.184C223.902 157.184 226.292 157.525 228.638 158.208C228.809 157.312 228.958 156.416 229.086 155.52L240.03 157.376C239.732 158.187 239.433 159.403 239.134 161.024C238.836 162.645 238.58 164.459 238.366 166.464C238.196 168.469 238.046 170.475 237.918 172.48C237.79 174.485 237.726 176.299 237.726 177.92C237.726 179.243 237.812 180.544 237.982 181.824C238.196 183.061 238.622 184.085 239.262 184.896C239.902 185.664 240.884 186.048 242.206 186.048H243.102L241.502 197.184C238.686 197.184 236.361 196.693 234.526 195.712C232.692 194.773 231.22 193.493 230.11 191.872C228.276 193.92 226.185 195.285 223.838 195.968C221.492 196.693 219.06 197.056 216.542 197.056ZM209.886 179.84C210.1 181.888 210.932 183.531 212.382 184.768C213.876 185.963 215.753 186.56 218.014 186.56C220.19 186.56 222.004 185.984 223.454 184.832C224.905 183.637 226.1 182.016 227.038 179.968C226.996 179.285 226.974 178.581 226.974 177.856C226.974 176.363 227.017 174.827 227.102 173.248C227.188 171.669 227.294 170.112 227.422 168.576C225.63 167.893 223.753 167.552 221.79 167.552C219.486 167.552 217.417 168.021 215.582 168.96C213.79 169.856 212.382 171.115 211.358 172.736C210.334 174.357 209.822 176.235 209.822 178.368C209.822 178.624 209.822 178.88 209.822 179.136C209.822 179.392 209.844 179.627 209.886 179.84ZM247.551 196.672C247.381 194.624 247.231 192 247.103 188.8C247.018 185.6 246.975 182.123 246.975 178.368C246.975 175.04 246.997 171.605 247.039 168.064C247.125 164.523 247.231 161.045 247.359 157.632C247.53 154.176 247.701 150.955 247.871 147.968C248.085 144.939 248.319 142.293 248.575 140.032L259.711 140.8C259.114 145.152 258.645 149.568 258.303 154.048C258.005 158.485 257.813 163.008 257.727 167.616C260.117 165.952 262.89 164.203 266.047 162.368C269.247 160.491 273.087 158.379 277.567 156.032L283.583 166.08C278.975 167.531 274.901 169.195 271.359 171.072C267.818 172.907 264.917 174.763 262.655 176.64C262.229 176.939 261.951 177.152 261.823 177.28C261.695 177.408 261.631 177.493 261.631 177.536C261.631 177.792 262.335 178.261 263.743 178.944C265.621 179.925 267.562 180.885 269.567 181.824C271.573 182.763 273.813 183.723 276.287 184.704C278.762 185.643 281.599 186.645 284.799 187.712L280.383 197.184C276.501 196.032 272.618 194.581 268.735 192.832C264.853 191.083 261.333 189.312 258.175 187.52C258.218 188.971 258.282 190.443 258.367 191.936C258.495 193.429 258.602 194.923 258.687 196.416L247.551 196.672ZM303.542 197.056C300.342 197.056 297.441 196.224 294.838 194.56C292.236 192.939 290.166 190.741 288.63 187.968C287.137 185.152 286.39 182.016 286.39 178.56C286.39 175.317 286.988 172.395 288.182 169.792C289.377 167.147 290.998 164.885 293.046 163.008C295.137 161.131 297.505 159.701 300.15 158.72C302.796 157.696 305.569 157.184 308.47 157.184C310.902 157.184 313.292 157.525 315.638 158.208C315.809 157.312 315.958 156.416 316.086 155.52L327.03 157.376C326.732 158.187 326.433 159.403 326.134 161.024C325.836 162.645 325.58 164.459 325.366 166.464C325.196 168.469 325.046 170.475 324.918 172.48C324.79 174.485 324.726 176.299 324.726 177.92C324.726 179.243 324.812 180.544 324.982 181.824C325.196 183.061 325.622 184.085 326.262 184.896C326.902 185.664 327.884 186.048 329.206 186.048H330.102L328.502 197.184C325.686 197.184 323.361 196.693 321.526 195.712C319.692 194.773 318.22 193.493 317.11 191.872C315.276 193.92 313.185 195.285 310.838 195.968C308.492 196.693 306.06 197.056 303.542 197.056ZM296.886 179.84C297.1 181.888 297.932 183.531 299.382 184.768C300.876 185.963 302.753 186.56 305.014 186.56C307.19 186.56 309.004 185.984 310.454 184.832C311.905 183.637 313.1 182.016 314.038 179.968C313.996 179.285 313.974 178.581 313.974 177.856C313.974 176.363 314.017 174.827 314.102 173.248C314.188 171.669 314.294 170.112 314.422 168.576C312.63 167.893 310.753 167.552 308.79 167.552C306.486 167.552 304.417 168.021 302.582 168.96C300.79 169.856 299.382 171.115 298.358 172.736C297.334 174.357 296.822 176.235 296.822 178.368C296.822 178.624 296.822 178.88 296.822 179.136C296.822 179.392 296.844 179.627 296.886 179.84ZM335.575 197.056L333.975 188.672C334.53 188.459 335.191 188.267 335.959 188.096C337.282 187.243 338.797 186.112 340.503 184.704C342.253 183.253 344.045 181.675 345.879 179.968C347.714 178.261 349.485 176.576 351.191 174.912C352.898 173.205 354.391 171.669 355.671 170.304C356.951 168.939 357.89 167.872 358.487 167.104C358.701 166.805 358.85 166.592 358.935 166.464C359.021 166.293 359.063 166.187 359.063 166.144C359.063 166.187 358.765 166.208 358.167 166.208C357.57 166.208 357.037 166.208 356.567 166.208C355.031 166.208 353.154 166.336 350.935 166.592C348.759 166.805 346.413 167.147 343.895 167.616C341.378 168.085 338.861 168.725 336.343 169.536L334.423 159.232C338.818 158.379 342.999 157.739 346.967 157.312C350.978 156.843 354.754 156.608 358.295 156.608C359.661 156.608 361.111 156.651 362.647 156.736C364.226 156.821 365.719 157.077 367.127 157.504C368.535 157.888 369.687 158.549 370.583 159.488C371.479 160.384 371.927 161.643 371.927 163.264C371.927 164.416 371.437 165.845 370.455 167.552C369.517 169.216 368.173 171.072 366.423 173.12C364.717 175.125 362.711 177.237 360.407 179.456C358.146 181.675 355.693 183.893 353.047 186.112C355.394 185.984 357.719 185.92 360.023 185.92C363.309 185.92 366.21 185.984 368.727 186.112C371.245 186.24 372.909 186.411 373.719 186.624L373.783 196.608C372.589 196.523 370.669 196.437 368.023 196.352C365.378 196.309 362.455 196.288 359.255 196.288C356.269 196.288 353.218 196.309 350.103 196.352C347.031 196.437 344.194 196.523 341.591 196.608C339.031 196.736 337.026 196.885 335.575 197.056ZM379.599 150.656C379.599 150.272 379.577 149.888 379.535 149.504C379.535 149.077 379.535 148.608 379.535 148.096C379.535 146.731 379.577 145.28 379.663 143.744C379.748 142.208 379.833 140.907 379.919 139.84L391.311 140.032C391.183 141.483 391.033 143.125 390.863 144.96C390.735 146.795 390.649 148.693 390.607 150.656H379.599ZM379.343 196.48C379.215 193.835 379.129 191.019 379.087 188.032C379.044 185.003 379.023 181.973 379.023 178.944C379.023 174.976 379.065 171.115 379.151 167.36C379.236 163.605 379.343 160.192 379.471 157.12L390.479 157.056C390.308 159.019 390.201 161.451 390.159 164.352C390.116 167.211 390.095 170.219 390.095 173.376C390.095 176.491 390.116 179.563 390.159 182.592C390.201 185.621 390.244 188.373 390.287 190.848C390.372 193.28 390.436 195.157 390.479 196.48H379.343Z" fill="#FFFCF1"/>
<path d="M338.107 83.0743C338.175 82.8796 338.259 82.6718 338.359 82.4508C338.459 82.2298 338.575 81.9749 338.706 81.6859C339.038 80.9549 339.448 80.0957 339.937 79.1082C340.434 78.1037 340.975 77.0475 341.559 75.9394C342.152 74.8144 342.744 73.6893 343.337 72.5643C343.937 71.4222 344.514 70.3311 345.068 69.2911C345.639 68.2587 346.151 67.333 346.605 66.5139C346.177 66.4633 345.795 66.4233 345.46 66.3942L346.741 61.8097C348.909 62.1374 350.878 62.5393 352.651 63.0155C354.44 63.4994 356.006 64.046 357.349 64.6553C360.086 65.8971 361.941 67.3643 362.916 69.0568C363.89 70.7494 363.93 72.5815 363.035 74.5534C362.526 75.6753 361.852 76.5069 361.012 77.0481C360.179 77.5724 359.201 77.8766 358.076 77.9608C359.777 80.0854 360.053 82.4141 358.903 84.9469C358.394 86.0688 357.754 86.9158 356.982 87.4879C356.234 88.0507 355.434 88.4151 354.579 88.5809C353.725 88.7468 352.883 88.7744 352.051 88.6637C351.229 88.5777 350.48 88.4222 349.803 88.1971C349.136 87.9967 348.623 87.8155 348.266 87.6536C347.383 87.2525 346.478 86.7394 345.552 86.1143C344.626 85.4893 343.764 84.7908 342.967 84.0189C342.812 84.3589 342.666 84.6818 342.527 84.9878L338.107 83.0743ZM355.519 68.9598C354.907 68.6821 354.246 68.423 353.535 68.1825C352.849 67.9326 352.147 67.7168 351.43 67.535C350.765 68.7296 350.008 70.1282 349.157 71.7308C349.371 71.8481 349.588 71.9569 349.809 72.0571C350.047 72.1651 350.285 72.2731 350.523 72.3811C355.01 74.4173 357.671 74.5175 358.504 72.6817C358.781 72.0697 358.649 71.4357 358.106 70.7794C357.588 70.114 356.726 69.5074 355.519 68.9598ZM349.281 76.6758C348.924 76.5139 348.559 76.348 348.185 76.1784C347.828 76.0164 347.458 75.859 347.077 75.7064C346.703 76.4389 346.33 77.1714 345.957 77.9039C345.6 78.6441 345.239 79.372 344.874 80.0875C345.694 80.8084 346.533 81.4451 347.389 81.9976C348.253 82.5331 349.016 82.9513 349.679 83.2521C351.09 83.8923 352.179 84.1812 352.945 84.1189C353.719 84.0396 354.287 83.6005 354.65 82.8016C355.097 81.8156 354.854 80.7931 353.92 79.7339C353.003 78.6825 351.457 77.6631 349.281 76.6758ZM360.341 93.1632C360.815 91.9841 361.368 90.6976 362 89.3038C362.609 87.9609 363.283 86.5446 364.02 85.0548C364.758 83.5651 365.528 82.0699 366.332 80.5693C367.144 79.0517 367.97 77.5921 368.811 76.1903C368.508 76.1349 368.214 76.0833 367.928 76.0356C367.667 75.9786 367.419 75.9379 367.184 75.9133L367.723 71.2691C372.277 72.1667 375.922 73.2365 378.659 74.4783C384.217 77.0005 386.036 80.3779 384.116 84.6105C383.213 86.5994 381.833 87.8794 379.975 88.4507C378.124 89.005 375.846 88.8528 373.141 87.9941C374.094 90.0049 375.159 91.79 376.338 93.3496C377.54 94.8998 378.818 96.3303 380.171 97.641L375.665 100.117C374.911 99.3847 374.172 98.5062 373.448 97.4809C372.725 96.4556 372.036 95.3746 371.384 94.238C370.731 93.1014 370.125 91.9756 369.565 90.8606C369.022 89.7533 368.549 88.7394 368.147 87.8189C367.598 88.9841 367.041 90.1663 366.476 91.3655C365.936 92.5554 365.377 93.7878 364.799 95.0627L364.576 95.1463C363.93 94.8532 363.233 94.5369 362.485 94.1976C361.747 93.8829 361.068 93.6161 360.45 93.3971L360.341 93.1632ZM376.59 78.4283C376.114 78.2123 375.609 78.0142 375.076 77.8338C374.551 77.6364 374.017 77.456 373.477 77.2926C372.977 78.2136 372.489 79.1301 372.014 80.0419C371.546 80.9366 371.087 81.8353 370.637 82.7378C371.393 83.0602 372.219 83.384 373.117 83.7094C374.04 84.0255 374.942 84.2505 375.824 84.3843C376.714 84.5011 377.506 84.4504 378.199 84.2321C378.91 84.0215 379.431 83.5508 379.763 82.8198C380.148 81.9699 380.081 81.1913 379.562 80.4841C379.042 79.7769 378.051 79.0916 376.59 78.4283ZM381.876 103.242C381.93 102.898 381.985 102.461 382.04 101.933C382.087 101.421 382.122 100.894 382.143 100.35C382.181 99.8139 382.176 99.3295 382.126 98.897L382.272 98.7787C382.524 98.811 382.763 98.8479 382.99 98.8895C384.867 98.3676 386.682 97.7771 388.437 97.1178C390.216 96.4492 391.878 95.7684 393.422 95.0753C394.984 94.3899 396.363 93.7448 397.56 93.1399C398.781 92.5258 399.764 92.0084 400.509 91.5877C401.27 91.1747 401.737 90.9149 401.908 90.8082C402.03 90.72 402.132 90.6535 402.214 90.6087C402.303 90.5468 402.364 90.5028 402.397 90.4765C402.363 90.461 402.295 90.4302 402.193 90.3839C402.115 90.3284 401.975 90.2543 401.771 90.1617C401.414 89.9998 400.799 89.7514 399.926 89.4168C399.053 89.0821 398.015 88.7035 396.813 88.281C395.618 87.8416 394.353 87.4006 393.016 86.9581C391.68 86.5156 390.365 86.114 389.074 85.7534L390.551 81.0738C392.182 81.547 393.826 82.0781 395.486 82.6671C397.17 83.2469 398.767 83.8383 400.277 84.4413C401.811 85.0351 403.165 85.5981 404.338 86.1303C404.899 86.3848 405.482 86.6802 406.088 87.0166C406.694 87.353 407.222 87.7257 407.672 88.1348C408.138 88.5516 408.453 89.0327 408.616 89.5779C408.786 90.1061 408.721 90.7017 408.42 91.3647C407.965 92.3676 406.953 93.333 405.384 94.261C403.742 95.2585 402.031 96.1834 400.251 97.0358C398.495 97.879 396.777 98.6371 395.098 99.3102C393.437 99.991 391.921 100.574 390.553 101.06C391.18 101.304 391.809 101.569 392.437 101.854C393.091 102.13 393.749 102.419 394.412 102.719C395.925 103.406 397.338 104.109 398.652 104.828C399.973 105.53 401.102 106.206 402.037 106.855L399.282 110.894C398.211 110.182 396.998 109.468 395.642 108.751C394.296 108.058 392.909 107.387 391.481 106.74C389.832 105.991 388.174 105.31 386.505 104.697C384.836 104.083 383.293 103.598 381.876 103.242ZM413.259 117.113C411.662 116.388 410.343 115.431 409.304 114.242C408.258 113.071 407.494 111.75 407.012 110.281C406.531 108.813 406.336 107.299 406.428 105.742C406.519 104.185 406.901 102.667 407.572 101.188C408.189 99.8281 408.998 98.5862 410 97.4624C411.01 96.3217 412.174 95.4048 413.493 94.7118C414.819 94.0019 416.266 93.6131 417.834 93.5457C419.419 93.4859 421.087 93.8533 422.838 94.6477C424.657 95.473 426.095 96.5048 427.153 97.7431C428.218 98.9644 428.949 100.29 429.345 101.72C429.742 103.151 429.855 104.617 429.686 106.118C429.518 107.62 429.121 109.059 428.496 110.436C427.748 112.085 426.815 113.486 425.697 114.639C424.579 115.793 423.339 116.675 421.975 117.286C420.619 117.88 419.197 118.168 417.709 118.149C416.222 118.129 414.738 117.784 413.259 117.113ZM415.192 112.855C416.212 113.318 417.267 113.5 418.357 113.4C419.456 113.283 420.511 112.809 421.524 111.977C422.537 111.146 423.433 109.871 424.212 108.154C424.883 106.675 425.146 105.329 425 104.115C424.854 102.901 424.426 101.856 423.716 100.98C423.006 100.105 422.15 99.4396 421.147 98.9845C420.008 98.4677 418.955 98.2359 417.988 98.2891C417.021 98.3422 416.142 98.6093 415.349 99.0903C414.565 99.5543 413.878 100.165 413.288 100.922C412.699 101.68 412.199 102.509 411.791 103.41C411.389 104.294 411.178 105.212 411.155 106.165C411.14 107.102 411.283 108.007 411.583 108.881C411.908 109.746 412.372 110.53 412.975 111.234C413.586 111.922 414.325 112.462 415.192 112.855Z" fill="#FFECB2"/>
<path d="M107.731 255.072C106.054 254.294 104.791 253.534 103.942 252.791C103.094 252.048 102.554 251.304 102.323 250.559C102.084 249.831 102.049 249.085 102.219 248.32C102.413 247.546 102.698 246.752 103.075 245.939C103.703 244.585 104.455 243.051 105.331 241.337C106.224 239.632 107.193 237.808 108.238 235.864C109.307 233.912 110.417 231.895 111.566 229.815L115.978 232.415C115.204 233.641 114.431 234.908 113.66 236.217C112.914 237.517 112.2 238.791 111.519 240.039C110.838 241.287 110.228 242.424 109.691 243.45C109.153 244.477 108.703 245.338 108.339 246.034C108.001 246.72 107.784 247.165 107.69 247.368C107.415 247.961 107.275 248.441 107.269 248.809C107.271 249.16 107.452 249.48 107.811 249.77C108.171 250.06 108.74 250.385 109.519 250.747C110.501 251.202 111.638 251.657 112.93 252.111C114.229 252.548 115.572 252.934 116.96 253.269C118.348 253.604 119.65 253.836 120.864 253.967L119.83 258.796C118.545 258.55 117.179 258.236 115.731 257.853C114.3 257.478 112.893 257.052 111.509 256.575C110.125 256.099 108.866 255.597 107.731 255.072ZM124.498 262.78L120.531 259.954C122.866 257.045 125.09 254.465 127.203 252.214C129.333 249.971 131.312 248.121 133.139 246.664C134.967 245.206 136.607 244.197 138.061 243.636C139.539 243.066 140.777 243.013 141.776 243.476C143.792 244.41 144.779 247.141 144.738 251.668C144.705 256.179 143.641 262.249 141.546 269.878L136.767 268.404C137.081 267.192 137.391 265.947 137.695 264.668C138.008 263.373 138.296 262.107 138.56 260.872C138.161 260.666 137.725 260.454 137.251 260.234C136.421 259.85 135.532 259.458 134.585 259.061C133.655 258.671 132.721 258.31 131.784 257.979C130.872 257.638 130.015 257.334 129.214 257.065C128.39 258 127.566 258.956 126.744 259.932C125.946 260.9 125.197 261.849 124.498 262.78ZM136.048 250.11C135.306 250.733 134.21 251.789 132.76 253.277C133.527 253.53 134.325 253.828 135.154 254.17C135.99 254.496 136.798 254.84 137.577 255.201C138.238 255.507 138.865 255.818 139.459 256.135C139.622 255.161 139.751 254.284 139.844 253.505C139.955 252.733 140.016 252.114 140.027 251.645C140.095 250.566 140.08 249.777 139.982 249.279C139.892 248.764 139.702 248.44 139.414 248.306C139.11 248.165 138.711 248.227 138.217 248.492C137.732 248.74 137.009 249.28 136.048 250.11ZM143.352 271.518C143.984 270.021 144.728 268.349 145.584 266.503C146.384 264.776 147.257 262.958 148.203 261.051C149.149 259.144 150.144 257.218 151.188 255.275C152.233 253.331 153.28 251.45 154.328 249.632L158.713 251.757C158.011 252.872 157.315 254.02 156.623 255.201C155.956 256.373 155.303 257.562 154.662 258.767C155.601 258.606 156.719 258.435 158.017 258.254C159.339 258.064 160.729 257.906 162.187 257.779C163.652 257.636 165.102 257.526 166.537 257.45C167.988 257.382 169.319 257.371 170.532 257.419L169.775 262.315C168.546 262.259 167.288 262.242 166.003 262.264C164.734 262.293 163.508 262.342 162.324 262.41C161.165 262.47 160.115 262.56 159.175 262.679C158.243 262.782 157.487 262.905 156.906 263.047C156.334 263.173 156.012 263.312 155.941 263.464C155.839 263.685 155.997 264.21 156.414 265.041C156.831 265.873 157.443 266.907 158.248 268.144C159.053 269.381 159.995 270.723 161.073 272.169C162.169 273.623 163.323 275.084 164.536 276.551L160.36 279.368C158.892 277.474 157.577 275.651 156.414 273.898C155.276 272.137 154.28 270.512 153.426 269.026C152.588 267.548 151.904 266.294 151.372 265.266C151.082 265.893 150.792 266.52 150.501 267.146C149.975 268.281 149.474 269.386 148.996 270.461C148.543 271.526 148.122 272.524 147.732 273.455L143.352 271.518ZM175.198 286.152C173.606 285.414 172.295 284.447 171.266 283.25C170.229 282.07 169.475 280.743 169.005 279.271C168.536 277.798 168.353 276.283 168.457 274.727C168.561 273.17 168.955 271.655 169.638 270.182C170.265 268.827 171.085 267.592 172.096 266.476C173.114 265.343 174.286 264.436 175.61 263.753C176.942 263.054 178.393 262.677 179.961 262.622C181.547 262.575 183.212 262.955 184.956 263.764C186.768 264.604 188.198 265.647 189.246 266.894C190.301 268.123 191.021 269.455 191.406 270.888C191.791 272.322 191.893 273.789 191.712 275.289C191.531 276.789 191.123 278.225 190.487 279.597C189.726 281.24 188.782 282.634 187.655 283.778C186.528 284.922 185.28 285.794 183.912 286.394C182.551 286.978 181.127 287.254 179.639 287.223C178.152 287.192 176.671 286.835 175.198 286.152ZM177.164 281.91C178.18 282.381 179.234 282.571 180.325 282.48C181.425 282.372 182.484 281.906 183.504 281.082C184.523 280.259 185.429 278.992 186.222 277.281C186.905 275.808 187.178 274.463 187.042 273.248C186.905 272.033 186.486 270.984 185.783 270.103C185.081 269.222 184.23 268.55 183.23 268.087C182.096 267.561 181.045 267.321 180.077 267.366C179.11 267.412 178.228 267.672 177.432 268.146C176.644 268.604 175.952 269.209 175.356 269.962C174.76 270.715 174.255 271.54 173.839 272.437C173.43 273.318 173.211 274.235 173.181 275.188C173.159 276.124 173.294 277.03 173.588 277.907C173.906 278.774 174.363 279.562 174.961 280.271C175.566 280.963 176.3 281.509 177.164 281.91Z" fill="#FFECB2"/>
</svg>
