<svg width="292" height="70" viewBox="0 0 292 70" fill="none" xmlns="http://www.w3.org/2000/svg">
<rect width="292" height="70" rx="20" fill="#A06389"/>
<path d="M21.8809 49.484C21.8089 47.852 21.7729 46.052 21.7729 44.084C21.7729 42.188 21.8089 40.172 21.8809 38.036C21.9529 35.9 22.0609 33.74 22.2049 31.556C22.3489 29.348 22.5409 27.2 22.7809 25.112C22.3969 25.208 22.0249 25.304 21.6649 25.4C21.3289 25.472 21.0169 25.556 20.7289 25.652L18.8929 19.928C24.7009 18.56 29.5369 17.876 33.4009 17.876C41.2489 17.876 45.1729 20.864 45.1729 26.84C45.1729 29.648 44.2369 31.88 42.3649 33.536C40.4929 35.168 37.7449 36.2 34.1209 36.632C36.3049 38.48 38.5009 40.004 40.7089 41.204C42.9409 42.38 45.1969 43.376 47.4769 44.192L43.5169 49.484C42.2449 49.028 40.9129 48.392 39.5209 47.576C38.1289 46.76 36.7489 45.86 35.3809 44.876C34.0129 43.892 32.7049 42.896 31.4569 41.888C30.2329 40.88 29.1409 39.944 28.1809 39.08C28.1569 40.736 28.1329 42.416 28.1089 44.12C28.1089 45.8 28.1089 47.54 28.1089 49.34L27.8929 49.556C26.9809 49.556 25.9969 49.556 24.9409 49.556C23.9089 49.58 22.9729 49.628 22.1329 49.7L21.8809 49.484ZM33.0769 23.6C32.4049 23.6 31.7089 23.636 30.9889 23.708C30.2689 23.756 29.5489 23.828 28.8289 23.924C28.7329 25.268 28.6489 26.6 28.5769 27.92C28.5049 29.216 28.4449 30.512 28.3969 31.808C29.4529 31.784 30.5929 31.724 31.8169 31.628C33.0649 31.508 34.2409 31.292 35.3449 30.98C36.4489 30.644 37.3489 30.164 38.0449 29.54C38.7649 28.916 39.1249 28.088 39.1249 27.056C39.1249 25.856 38.6329 24.98 37.6489 24.428C36.6649 23.876 35.1409 23.6 33.0769 23.6ZM61.3051 49.88C59.0011 49.88 56.9731 49.424 55.2211 48.512C53.4931 47.624 52.1371 46.376 51.1531 44.768C50.1931 43.16 49.7131 41.3 49.7131 39.188C49.7131 37.916 49.9291 36.584 50.3611 35.192C50.7931 33.776 51.4891 32.456 52.4491 31.232C53.4091 30.008 54.6691 29.012 56.2291 28.244C57.8131 27.476 59.7331 27.092 61.9891 27.092C63.6211 27.092 64.9891 27.272 66.0931 27.632C67.2211 27.992 68.1331 28.46 68.8291 29.036C69.5491 29.612 70.0891 30.224 70.4491 30.872C70.8331 31.52 71.0851 32.144 71.2051 32.744C71.3491 33.32 71.4211 33.8 71.4211 34.184C71.4211 36.512 70.4371 38.312 68.4691 39.584C66.5251 40.832 63.7651 41.456 60.1891 41.456C59.3731 41.456 58.5931 41.42 57.8491 41.348C57.1291 41.276 56.4571 41.192 55.8331 41.096C56.2891 42.296 57.0451 43.184 58.1011 43.76C59.1571 44.312 60.2491 44.588 61.3771 44.588C63.0091 44.588 64.4491 44.3 65.6971 43.724C66.9451 43.124 68.1211 42.212 69.2251 40.988L72.4291 45.596C71.6611 46.22 70.7971 46.868 69.8371 47.54C68.9011 48.212 67.7491 48.764 66.3811 49.196C65.0131 49.652 63.3211 49.88 61.3051 49.88ZM62.0971 32.492C60.6811 32.492 59.4331 32.852 58.3531 33.572C57.2731 34.292 56.4811 35.24 55.9771 36.416C56.5771 36.512 57.1651 36.596 57.7411 36.668C58.3411 36.716 58.9291 36.74 59.5051 36.74C60.0331 36.74 60.6331 36.692 61.3051 36.596C62.0011 36.5 62.6731 36.356 63.3211 36.164C63.9931 35.972 64.5451 35.732 64.9771 35.444C65.4091 35.132 65.6251 34.772 65.6251 34.364C65.6251 34.172 65.5291 33.932 65.3371 33.644C65.1451 33.356 64.7971 33.092 64.2931 32.852C63.7891 32.612 63.0571 32.492 62.0971 32.492ZM83.5702 47.18C82.0582 47.18 80.7742 46.952 79.7182 46.496C78.6622 46.04 77.7862 45.452 77.0902 44.732C76.4182 43.988 75.8902 43.196 75.5062 42.356C75.1222 41.492 74.8582 40.664 74.7142 39.872C74.5702 39.056 74.4982 38.348 74.4982 37.748C74.4982 36.596 74.6542 35.408 74.9662 34.184C75.3022 32.96 75.8542 31.82 76.6222 30.764C77.4142 29.708 78.4822 28.856 79.8262 28.208C81.1942 27.56 82.9102 27.236 84.9742 27.236C85.5982 27.236 86.1742 27.284 86.7022 27.38C87.2302 27.476 87.7222 27.608 88.1782 27.776V26.588H94.4062C94.3822 28.028 94.3582 29.66 94.3342 31.484C94.3102 33.284 94.2982 35.324 94.2982 37.604C94.2982 38.78 94.2982 40.016 94.2982 41.312C94.3222 42.584 94.3342 43.976 94.3342 45.488C94.3342 47.552 94.0582 49.244 93.5062 50.564C92.9542 51.884 92.2462 52.904 91.3822 53.624C90.5182 54.344 89.6182 54.86 88.6822 55.172C87.7702 55.508 86.9182 55.7 86.1262 55.748C85.3582 55.82 84.7822 55.856 84.3982 55.856C83.4622 55.856 82.4302 55.748 81.3022 55.532C80.1742 55.34 79.0462 55.016 77.9182 54.56C76.7902 54.128 75.7582 53.564 74.8222 52.868L77.4502 47.396C78.0502 47.9 78.6502 48.356 79.2502 48.764C79.8502 49.196 80.5462 49.532 81.3382 49.772C82.1302 50.036 83.1142 50.168 84.2902 50.168C85.4902 50.168 86.3782 49.952 86.9542 49.52C87.5302 49.112 87.9022 48.56 88.0702 47.864C88.2622 47.192 88.3702 46.448 88.3942 45.632C87.5782 46.232 86.7502 46.64 85.9102 46.856C85.0702 47.072 84.2902 47.18 83.5702 47.18ZM79.8982 37.244C79.8982 38.612 80.2702 39.692 81.0142 40.484C81.7822 41.276 82.8262 41.672 84.1462 41.672C85.9942 41.672 87.3742 40.604 88.2862 38.468C88.2862 37.7 88.2742 36.92 88.2502 36.128C88.2502 35.312 88.2382 34.52 88.2142 33.752C87.2542 33.128 86.1502 32.816 84.9022 32.816C83.3662 32.816 82.1422 33.224 81.2302 34.04C80.3422 34.832 79.8982 35.9 79.8982 37.244ZM97.3993 23.744C97.3993 23.528 97.3873 23.312 97.3633 23.096C97.3633 22.856 97.3633 22.592 97.3633 22.304C97.3633 21.536 97.3873 20.72 97.4353 19.856C97.4833 18.992 97.5313 18.26 97.5793 17.66L103.987 17.768C103.915 18.584 103.831 19.508 103.735 20.54C103.663 21.572 103.615 22.64 103.591 23.744H97.3993ZM97.2553 49.52C97.1833 48.032 97.1353 46.448 97.1113 44.768C97.0873 43.064 97.0753 41.36 97.0753 39.656C97.0753 37.424 97.0993 35.252 97.1473 33.14C97.1953 31.028 97.2553 29.108 97.3273 27.38L103.519 27.344C103.423 28.448 103.363 29.816 103.339 31.448C103.315 33.056 103.303 34.748 103.303 36.524C103.303 38.276 103.315 40.004 103.339 41.708C103.363 43.412 103.387 44.96 103.411 46.352C103.459 47.72 103.495 48.776 103.519 49.52H97.2553ZM117.583 49.988C115.951 49.988 114.439 49.796 113.047 49.412C111.655 49.028 110.395 48.536 109.267 47.936C108.139 47.336 107.131 46.7 106.243 46.028L109.483 40.808C110.491 41.744 111.463 42.464 112.399 42.968C113.335 43.472 114.307 43.82 115.315 44.012C116.347 44.204 117.463 44.3 118.663 44.3C119.695 44.3 120.523 44.168 121.147 43.904C121.771 43.616 122.083 43.256 122.083 42.824C122.083 42.464 121.783 42.188 121.183 41.996C120.583 41.78 119.815 41.6 118.879 41.456C117.943 41.288 116.959 41.084 115.927 40.844C114.463 40.46 113.095 40.016 111.823 39.512C110.551 39.008 109.519 38.324 108.727 37.46C107.959 36.596 107.575 35.444 107.575 34.004C107.575 32.852 107.851 31.844 108.403 30.98C108.955 30.092 109.687 29.36 110.599 28.784C111.535 28.184 112.591 27.74 113.767 27.452C114.943 27.164 116.155 27.02 117.403 27.02C119.563 27.02 121.423 27.284 122.983 27.812C124.567 28.316 126.079 28.988 127.519 29.828L124.243 34.796C123.523 34.292 122.695 33.86 121.759 33.5C120.847 33.116 119.923 32.828 118.987 32.636C118.075 32.42 117.223 32.312 116.431 32.312C115.567 32.312 114.883 32.444 114.379 32.708C113.899 32.972 113.659 33.344 113.659 33.824C113.659 34.112 113.959 34.388 114.559 34.652C115.183 34.892 116.359 35.216 118.087 35.624C119.119 35.864 120.211 36.116 121.363 36.38C122.515 36.62 123.595 36.968 124.603 37.424C125.635 37.856 126.463 38.492 127.087 39.332C127.735 40.148 128.059 41.24 128.059 42.608C128.059 44.912 127.135 46.712 125.287 48.008C123.439 49.328 120.871 49.988 117.583 49.988ZM141.635 49.844C140.195 49.844 139.055 49.532 138.215 48.908C137.375 48.308 136.763 47.468 136.379 46.388C135.995 45.308 135.743 44.072 135.623 42.68C135.527 41.288 135.479 39.824 135.479 38.288C135.479 36.704 135.539 35.06 135.659 33.356C134.051 33.572 132.503 33.848 131.015 34.184L129.899 28.532C131.891 28.004 134.015 27.62 136.271 27.38C136.439 26.156 136.619 24.872 136.811 23.528C137.003 22.16 137.219 20.72 137.459 19.208L143.651 19.748C143.363 20.996 143.111 22.244 142.895 23.492C142.679 24.716 142.487 25.904 142.319 27.056C143.663 27.056 144.923 27.092 146.099 27.164C147.299 27.212 148.403 27.308 149.411 27.452L148.691 33.104C147.851 33.008 146.975 32.948 146.063 32.924C145.175 32.876 144.275 32.852 143.363 32.852C142.811 32.852 142.259 32.864 141.707 32.888C141.563 34.64 141.467 36.14 141.419 37.388C141.395 38.636 141.383 39.524 141.383 40.052C141.383 41.372 141.455 42.32 141.599 42.896C141.767 43.472 142.031 43.76 142.391 43.76C142.799 43.76 143.255 43.628 143.759 43.364C144.263 43.076 144.755 42.692 145.235 42.212C145.739 41.732 146.159 41.216 146.495 40.664L149.267 46.46C146.891 48.716 144.347 49.844 141.635 49.844ZM151.82 49.808C151.916 47.816 151.988 45.824 152.036 43.832C152.084 41.84 152.108 39.872 152.108 37.928C152.084 36.152 152.048 34.4 152 32.672C151.976 30.92 151.916 29.228 151.82 27.596L157.868 27.416C157.892 28.304 157.928 29.216 157.976 30.152C158.744 29.192 159.632 28.424 160.64 27.848C161.672 27.248 162.848 26.948 164.168 26.948C164.672 26.948 165.32 27.02 166.112 27.164C166.904 27.308 167.708 27.584 168.524 27.992L167.84 34.076C167.24 33.716 166.592 33.464 165.896 33.32C165.224 33.152 164.66 33.068 164.204 33.068C162.668 33.068 161.36 33.764 160.28 35.156C159.224 36.524 158.504 38.432 158.12 40.88C158.12 42.56 158.096 44.168 158.048 45.704C158.024 47.216 157.964 48.584 157.868 49.808H151.82ZM179.035 49.844C177.235 49.844 175.603 49.376 174.139 48.44C172.675 47.528 171.511 46.292 170.647 44.732C169.807 43.148 169.387 41.384 169.387 39.44C169.387 37.616 169.723 35.972 170.395 34.508C171.067 33.02 171.979 31.748 173.131 30.692C174.307 29.636 175.639 28.832 177.127 28.28C178.615 27.704 180.175 27.416 181.807 27.416C183.175 27.416 184.519 27.608 185.839 27.992C185.935 27.488 186.019 26.984 186.091 26.48L192.247 27.524C192.079 27.98 191.911 28.664 191.743 29.576C191.575 30.488 191.431 31.508 191.311 32.636C191.215 33.764 191.131 34.892 191.059 36.02C190.987 37.148 190.951 38.168 190.951 39.08C190.951 39.824 190.999 40.556 191.095 41.276C191.215 41.972 191.455 42.548 191.815 43.004C192.175 43.436 192.727 43.652 193.471 43.652H193.975L193.075 49.916C191.491 49.916 190.183 49.64 189.151 49.088C188.119 48.56 187.291 47.84 186.667 46.928C185.635 48.08 184.459 48.848 183.139 49.232C181.819 49.64 180.451 49.844 179.035 49.844ZM175.291 40.16C175.411 41.312 175.879 42.236 176.695 42.932C177.535 43.604 178.591 43.94 179.863 43.94C181.087 43.94 182.107 43.616 182.923 42.968C183.739 42.296 184.411 41.384 184.939 40.232C184.915 39.848 184.903 39.452 184.903 39.044C184.903 38.204 184.927 37.34 184.975 36.452C185.023 35.564 185.083 34.688 185.155 33.824C184.147 33.44 183.091 33.248 181.987 33.248C180.691 33.248 179.527 33.512 178.495 34.04C177.487 34.544 176.695 35.252 176.119 36.164C175.543 37.076 175.255 38.132 175.255 39.332C175.255 39.476 175.255 39.62 175.255 39.764C175.255 39.908 175.267 40.04 175.291 40.16ZM206.81 49.916C204.794 49.916 202.934 49.496 201.23 48.656C199.526 47.816 198.158 46.616 197.126 45.056C196.094 43.472 195.578 41.588 195.578 39.404C195.578 36.956 196.058 34.808 197.018 32.96C197.978 31.112 199.322 29.684 201.05 28.676C202.778 27.644 204.794 27.128 207.098 27.128C209.306 27.128 211.178 27.584 212.714 28.496C214.25 29.384 215.618 30.8 216.818 32.744L211.814 36.2C211.142 35.12 210.458 34.304 209.762 33.752C209.066 33.176 208.118 32.888 206.918 32.888C205.286 32.888 203.966 33.464 202.958 34.616C201.95 35.744 201.446 37.256 201.446 39.152C201.446 40.256 201.71 41.156 202.238 41.852C202.79 42.548 203.462 43.064 204.254 43.4C205.046 43.736 205.79 43.904 206.486 43.904C207.206 43.904 207.902 43.82 208.574 43.652C209.246 43.46 209.882 43.052 210.482 42.428C211.082 41.804 211.622 40.856 212.102 39.584L217.502 42.464C216.782 43.784 215.978 45.008 215.09 46.136C214.202 47.264 213.098 48.176 211.778 48.872C210.482 49.568 208.826 49.916 206.81 49.916ZM219.778 23.744C219.778 23.528 219.766 23.312 219.742 23.096C219.742 22.856 219.742 22.592 219.742 22.304C219.742 21.536 219.766 20.72 219.814 19.856C219.862 18.992 219.91 18.26 219.958 17.66L226.366 17.768C226.294 18.584 226.21 19.508 226.114 20.54C226.042 21.572 225.994 22.64 225.97 23.744H219.778ZM219.634 49.52C219.562 48.032 219.514 46.448 219.49 44.768C219.466 43.064 219.454 41.36 219.454 39.656C219.454 37.424 219.478 35.252 219.526 33.14C219.574 31.028 219.634 29.108 219.706 27.38L225.898 27.344C225.802 28.448 225.742 29.816 225.718 31.448C225.694 33.056 225.682 34.748 225.682 36.524C225.682 38.276 225.694 40.004 225.718 41.708C225.742 43.412 225.766 44.96 225.79 46.352C225.838 47.72 225.874 48.776 225.898 49.52H219.634ZM240.502 23.924C240.454 23.324 240.394 22.604 240.322 21.764C240.274 20.924 240.25 20.12 240.25 19.352C240.25 19.088 240.25 18.824 240.25 18.56C240.274 18.272 240.298 18.032 240.322 17.84L246.55 17.66C246.55 17.852 246.55 18.236 246.55 18.812C246.574 19.388 246.586 20.024 246.586 20.72C246.61 21.416 246.634 22.052 246.658 22.628C246.682 23.18 246.694 23.552 246.694 23.744L240.502 23.924ZM238.234 49.844C235.546 49.844 233.338 48.956 231.61 47.18C229.882 45.404 228.718 42.86 228.118 39.548L234.202 37.748C234.202 38.396 234.274 39.08 234.418 39.8C234.586 40.52 234.838 41.204 235.174 41.852C235.51 42.5 235.93 43.028 236.434 43.436C236.938 43.82 237.514 44.012 238.162 44.012C239.05 44.012 239.698 43.796 240.106 43.364C240.538 42.932 240.802 42.2 240.898 41.168C240.946 40.616 240.982 39.992 241.006 39.296C241.03 38.576 241.042 37.832 241.042 37.064C241.042 35.84 241.018 34.616 240.97 33.392C240.922 32.144 240.862 31.004 240.79 29.972C240.718 28.94 240.622 28.148 240.502 27.596L246.802 27.416C246.826 27.872 246.85 28.616 246.874 29.648C246.898 30.656 246.922 31.832 246.946 33.176C246.97 34.52 246.982 35.912 246.982 37.352C246.982 38.24 246.97 39.128 246.946 40.016C246.922 40.904 246.874 41.732 246.802 42.5C246.73 43.292 246.526 44.12 246.19 44.984C245.878 45.848 245.386 46.64 244.714 47.36C244.042 48.104 243.178 48.704 242.122 49.16C241.066 49.616 239.77 49.844 238.234 49.844ZM259.157 49.844C257.357 49.844 255.725 49.376 254.261 48.44C252.797 47.528 251.633 46.292 250.769 44.732C249.929 43.148 249.509 41.384 249.509 39.44C249.509 37.616 249.845 35.972 250.517 34.508C251.189 33.02 252.101 31.748 253.253 30.692C254.429 29.636 255.761 28.832 257.249 28.28C258.737 27.704 260.297 27.416 261.929 27.416C263.297 27.416 264.641 27.608 265.961 27.992C266.057 27.488 266.141 26.984 266.213 26.48L272.369 27.524C272.201 27.98 272.033 28.664 271.865 29.576C271.697 30.488 271.553 31.508 271.433 32.636C271.337 33.764 271.253 34.892 271.181 36.02C271.109 37.148 271.073 38.168 271.073 39.08C271.073 39.824 271.121 40.556 271.217 41.276C271.337 41.972 271.577 42.548 271.937 43.004C272.297 43.436 272.849 43.652 273.593 43.652H274.097L273.197 49.916C271.613 49.916 270.305 49.64 269.273 49.088C268.241 48.56 267.413 47.84 266.789 46.928C265.757 48.08 264.581 48.848 263.261 49.232C261.941 49.64 260.573 49.844 259.157 49.844ZM255.413 40.16C255.533 41.312 256.001 42.236 256.817 42.932C257.657 43.604 258.713 43.94 259.985 43.94C261.209 43.94 262.229 43.616 263.045 42.968C263.861 42.296 264.533 41.384 265.061 40.232C265.037 39.848 265.025 39.452 265.025 39.044C265.025 38.204 265.049 37.34 265.097 36.452C265.145 35.564 265.205 34.688 265.277 33.824C264.269 33.44 263.213 33.248 262.109 33.248C260.813 33.248 259.649 33.512 258.617 34.04C257.609 34.544 256.817 35.252 256.241 36.164C255.665 37.076 255.377 38.132 255.377 39.332C255.377 39.476 255.377 39.62 255.377 39.764C255.377 39.908 255.389 40.04 255.413 40.16Z" fill="#FFFCF1"/>
</svg>
