<svg width="200" height="70" viewBox="0 0 200 70" fill="none" xmlns="http://www.w3.org/2000/svg">
<rect width="200" height="70" rx="20" fill="#A06389"/>
<path d="M33.0975 49.844C32.9775 49.412 32.8095 48.872 32.5935 48.224C32.3775 47.6 32.1375 46.964 31.8735 46.316C31.6335 45.668 31.3695 45.104 31.0815 44.624L31.1895 44.408C31.5015 44.312 31.8015 44.228 32.0895 44.156C34.0095 42.548 35.8215 40.892 37.5255 39.188C39.2535 37.46 40.8375 35.78 42.2775 34.148C43.7415 32.516 45.0135 31.028 46.0935 29.684C47.1975 28.316 48.0735 27.188 48.7215 26.3C49.3935 25.412 49.8015 24.86 49.9455 24.644C50.0415 24.476 50.1255 24.344 50.1975 24.248C50.2695 24.128 50.3175 24.044 50.3415 23.996C50.2935 23.996 50.1975 23.996 50.0535 23.996C49.9335 23.972 49.7295 23.96 49.4415 23.96C48.9375 23.96 48.0855 23.996 46.8855 24.068C45.6855 24.14 44.2695 24.248 42.6375 24.392C41.0055 24.512 39.2895 24.668 37.4895 24.86C35.6895 25.052 33.9375 25.28 32.2335 25.544L31.4775 19.28C33.6375 18.968 35.8455 18.716 38.1015 18.524C40.3815 18.308 42.5655 18.152 44.6535 18.056C46.7655 17.936 48.6495 17.876 50.3055 17.876C51.0975 17.876 51.9375 17.912 52.8255 17.984C53.7135 18.056 54.5295 18.212 55.2735 18.452C56.0415 18.692 56.6655 19.088 57.1455 19.64C57.6255 20.168 57.8655 20.9 57.8655 21.836C57.8655 23.252 57.1935 24.92 55.8495 26.84C54.4575 28.88 52.9455 30.872 51.3135 32.816C49.7055 34.736 48.0975 36.536 46.4895 38.216C44.9055 39.896 43.4415 41.384 42.0975 42.68C42.9615 42.632 43.8375 42.608 44.7255 42.608C45.6375 42.584 46.5615 42.572 47.4975 42.572C49.6335 42.572 51.6615 42.644 53.5815 42.788C55.5015 42.908 57.1815 43.1 58.6215 43.364L57.5415 49.556C55.9095 49.292 54.1095 49.1 52.1415 48.98C50.1975 48.884 48.2175 48.836 46.2015 48.836C43.8735 48.836 41.5695 48.92 39.2895 49.088C37.0095 49.256 34.9455 49.508 33.0975 49.844ZM71.055 49.844C69.255 49.844 67.623 49.376 66.159 48.44C64.695 47.528 63.531 46.292 62.667 44.732C61.827 43.148 61.407 41.384 61.407 39.44C61.407 37.616 61.743 35.972 62.415 34.508C63.087 33.02 63.999 31.748 65.151 30.692C66.327 29.636 67.659 28.832 69.147 28.28C70.635 27.704 72.195 27.416 73.827 27.416C75.195 27.416 76.539 27.608 77.859 27.992C77.955 27.488 78.039 26.984 78.111 26.48L84.267 27.524C84.099 27.98 83.931 28.664 83.763 29.576C83.595 30.488 83.451 31.508 83.331 32.636C83.235 33.764 83.151 34.892 83.079 36.02C83.007 37.148 82.971 38.168 82.971 39.08C82.971 39.824 83.019 40.556 83.115 41.276C83.235 41.972 83.475 42.548 83.835 43.004C84.195 43.436 84.747 43.652 85.491 43.652H85.995L85.095 49.916C83.511 49.916 82.203 49.64 81.171 49.088C80.139 48.56 79.311 47.84 78.687 46.928C77.655 48.08 76.479 48.848 75.159 49.232C73.839 49.64 72.471 49.844 71.055 49.844ZM67.311 40.16C67.431 41.312 67.899 42.236 68.715 42.932C69.555 43.604 70.611 43.94 71.883 43.94C73.107 43.94 74.127 43.616 74.943 42.968C75.759 42.296 76.431 41.384 76.959 40.232C76.935 39.848 76.923 39.452 76.923 39.044C76.923 38.204 76.947 37.34 76.995 36.452C77.043 35.564 77.103 34.688 77.175 33.824C76.167 33.44 75.111 33.248 74.007 33.248C72.711 33.248 71.547 33.512 70.515 34.04C69.507 34.544 68.715 35.252 68.139 36.164C67.563 37.076 67.275 38.132 67.275 39.332C67.275 39.476 67.275 39.62 67.275 39.764C67.275 39.908 67.287 40.04 67.311 40.16ZM88.4976 49.628C88.4016 48.476 88.3176 47 88.2456 45.2C88.1976 43.4 88.1736 41.444 88.1736 39.332C88.1736 37.46 88.1856 35.528 88.2096 33.536C88.2576 31.544 88.3176 29.588 88.3896 27.668C88.4856 25.724 88.5816 23.912 88.6776 22.232C88.7976 20.528 88.9296 19.04 89.0736 17.768L95.3376 18.2C95.0016 20.648 94.7376 23.132 94.5456 25.652C94.3776 28.148 94.2696 30.692 94.2216 33.284C95.5656 32.348 97.1256 31.364 98.9016 30.332C100.702 29.276 102.862 28.088 105.382 26.768L108.766 32.42C106.174 33.236 103.882 34.172 101.89 35.228C99.8976 36.26 98.2656 37.304 96.9936 38.36C96.7536 38.528 96.5976 38.648 96.5256 38.72C96.4536 38.792 96.4176 38.84 96.4176 38.864C96.4176 39.008 96.8136 39.272 97.6056 39.656C98.6616 40.208 99.7536 40.748 100.882 41.276C102.01 41.804 103.27 42.344 104.662 42.896C106.054 43.424 107.65 43.988 109.45 44.588L106.966 49.916C104.782 49.268 102.598 48.452 100.414 47.468C98.2296 46.484 96.2496 45.488 94.4736 44.48C94.4976 45.296 94.5336 46.124 94.5816 46.964C94.6536 47.804 94.7136 48.644 94.7616 49.484L88.4976 49.628ZM119.993 49.844C118.193 49.844 116.561 49.376 115.097 48.44C113.633 47.528 112.469 46.292 111.605 44.732C110.765 43.148 110.345 41.384 110.345 39.44C110.345 37.616 110.681 35.972 111.353 34.508C112.025 33.02 112.937 31.748 114.089 30.692C115.265 29.636 116.597 28.832 118.085 28.28C119.573 27.704 121.133 27.416 122.765 27.416C124.133 27.416 125.477 27.608 126.797 27.992C126.893 27.488 126.977 26.984 127.049 26.48L133.205 27.524C133.037 27.98 132.869 28.664 132.701 29.576C132.533 30.488 132.389 31.508 132.269 32.636C132.173 33.764 132.089 34.892 132.017 36.02C131.945 37.148 131.909 38.168 131.909 39.08C131.909 39.824 131.957 40.556 132.053 41.276C132.173 41.972 132.413 42.548 132.773 43.004C133.133 43.436 133.685 43.652 134.429 43.652H134.933L134.033 49.916C132.449 49.916 131.141 49.64 130.109 49.088C129.077 48.56 128.249 47.84 127.625 46.928C126.593 48.08 125.417 48.848 124.097 49.232C122.777 49.64 121.409 49.844 119.993 49.844ZM116.249 40.16C116.369 41.312 116.837 42.236 117.653 42.932C118.493 43.604 119.549 43.94 120.821 43.94C122.045 43.94 123.065 43.616 123.881 42.968C124.697 42.296 125.369 41.384 125.897 40.232C125.873 39.848 125.861 39.452 125.861 39.044C125.861 38.204 125.885 37.34 125.933 36.452C125.981 35.564 126.041 34.688 126.113 33.824C125.105 33.44 124.049 33.248 122.945 33.248C121.649 33.248 120.485 33.512 119.453 34.04C118.445 34.544 117.653 35.252 117.077 36.164C116.501 37.076 116.213 38.132 116.213 39.332C116.213 39.476 116.213 39.62 116.213 39.764C116.213 39.908 116.225 40.04 116.249 40.16ZM138.011 49.844L137.111 45.128C137.423 45.008 137.795 44.9 138.227 44.804C138.971 44.324 139.823 43.688 140.783 42.896C141.767 42.08 142.775 41.192 143.807 40.232C144.839 39.272 145.835 38.324 146.795 37.388C147.755 36.428 148.595 35.564 149.315 34.796C150.035 34.028 150.563 33.428 150.899 32.996C151.019 32.828 151.103 32.708 151.151 32.636C151.199 32.54 151.223 32.48 151.223 32.456C151.223 32.48 151.055 32.492 150.719 32.492C150.383 32.492 150.083 32.492 149.819 32.492C148.955 32.492 147.899 32.564 146.651 32.708C145.427 32.828 144.107 33.02 142.691 33.284C141.275 33.548 139.859 33.908 138.443 34.364L137.363 28.568C139.835 28.088 142.187 27.728 144.419 27.488C146.675 27.224 148.799 27.092 150.791 27.092C151.559 27.092 152.375 27.116 153.239 27.164C154.127 27.212 154.967 27.356 155.759 27.596C156.551 27.812 157.199 28.184 157.703 28.712C158.207 29.216 158.459 29.924 158.459 30.836C158.459 31.484 158.183 32.288 157.631 33.248C157.103 34.184 156.347 35.228 155.363 36.38C154.403 37.508 153.275 38.696 151.979 39.944C150.707 41.192 149.327 42.44 147.839 43.688C149.159 43.616 150.467 43.58 151.763 43.58C153.611 43.58 155.243 43.616 156.659 43.688C158.075 43.76 159.011 43.856 159.467 43.976L159.503 49.592C158.831 49.544 157.751 49.496 156.263 49.448C154.775 49.424 153.131 49.412 151.331 49.412C149.651 49.412 147.935 49.424 146.183 49.448C144.455 49.496 142.859 49.544 141.395 49.592C139.955 49.664 138.827 49.748 138.011 49.844ZM162.774 23.744C162.774 23.528 162.762 23.312 162.738 23.096C162.738 22.856 162.738 22.592 162.738 22.304C162.738 21.536 162.762 20.72 162.81 19.856C162.858 18.992 162.906 18.26 162.954 17.66L169.362 17.768C169.29 18.584 169.206 19.508 169.11 20.54C169.038 21.572 168.99 22.64 168.966 23.744H162.774ZM162.63 49.52C162.558 48.032 162.51 46.448 162.486 44.768C162.462 43.064 162.45 41.36 162.45 39.656C162.45 37.424 162.474 35.252 162.522 33.14C162.57 31.028 162.63 29.108 162.702 27.38L168.894 27.344C168.798 28.448 168.738 29.816 168.714 31.448C168.69 33.056 168.678 34.748 168.678 36.524C168.678 38.276 168.69 40.004 168.714 41.708C168.738 43.412 168.762 44.96 168.786 46.352C168.834 47.72 168.87 48.776 168.894 49.52H162.63Z" fill="#FFFCF1"/>
</svg>
