<svg width="198" height="70" viewBox="0 0 198 70" fill="none" xmlns="http://www.w3.org/2000/svg">
<rect width="198" height="70" rx="20" fill="#A06389"/>
<path d="M25.6499 49.412C25.6259 48.644 25.6139 47.864 25.6139 47.072C25.6139 46.304 25.6139 45.536 25.6139 44.768C25.6139 41.24 25.6859 37.82 25.8299 34.508C25.9739 31.172 26.1419 27.992 26.3339 24.968C25.3739 25.208 24.5699 25.436 23.9219 25.652L22.5179 19.892C23.6939 19.532 24.9299 19.22 26.2259 18.956C27.5459 18.668 28.8299 18.44 30.0779 18.272C31.3499 18.08 32.5139 17.948 33.5699 17.876C34.6499 17.78 35.5379 17.732 36.2339 17.732C36.9779 17.732 37.8899 17.792 38.9699 17.912C40.0739 18.032 41.2019 18.284 42.3539 18.668C43.5299 19.028 44.6219 19.58 45.6299 20.324C46.6379 21.068 47.4539 22.076 48.0779 23.348C48.7259 24.596 49.0499 26.168 49.0499 28.064C49.0499 30.032 48.6179 31.676 47.7539 32.996C46.8899 34.292 45.7499 35.336 44.3339 36.128C42.9179 36.896 41.3579 37.448 39.6539 37.784C37.9499 38.12 36.2699 38.288 34.6139 38.288C33.5579 38.288 32.5499 38.24 31.5899 38.144C31.5659 39.296 31.5539 40.436 31.5539 41.564C31.5539 43.1 31.5659 44.528 31.5899 45.848C31.6139 47.144 31.6619 48.284 31.7339 49.268L25.6499 49.412ZM36.0539 23.636C35.4299 23.636 34.7819 23.66 34.1099 23.708C33.4619 23.756 32.8139 23.816 32.1659 23.888C32.0459 25.16 31.9499 26.54 31.8779 28.028C31.8059 29.516 31.7459 31.04 31.6979 32.6C32.5859 32.672 33.5099 32.708 34.4699 32.708C40.2299 32.708 43.1099 31.004 43.1099 27.596C43.1099 26.252 42.5339 25.256 41.3819 24.608C40.2299 23.96 38.4539 23.636 36.0539 23.636ZM52.1914 49.808C52.2874 47.816 52.3594 45.824 52.4074 43.832C52.4554 41.84 52.4794 39.872 52.4794 37.928C52.4554 36.152 52.4194 34.4 52.3714 32.672C52.3474 30.92 52.2874 29.228 52.1914 27.596L58.2394 27.416C58.2634 28.304 58.2994 29.216 58.3474 30.152C59.1154 29.192 60.0034 28.424 61.0114 27.848C62.0434 27.248 63.2194 26.948 64.5394 26.948C65.0434 26.948 65.6914 27.02 66.4834 27.164C67.2754 27.308 68.0794 27.584 68.8954 27.992L68.2114 34.076C67.6114 33.716 66.9634 33.464 66.2674 33.32C65.5954 33.152 65.0314 33.068 64.5754 33.068C63.0394 33.068 61.7314 33.764 60.6514 35.156C59.5954 36.524 58.8754 38.432 58.4914 40.88C58.4914 42.56 58.4674 44.168 58.4194 45.704C58.3954 47.216 58.3354 48.584 58.2394 49.808H52.1914ZM70.2626 23.744C70.2626 23.528 70.2506 23.312 70.2266 23.096C70.2266 22.856 70.2266 22.592 70.2266 22.304C70.2266 21.536 70.2506 20.72 70.2986 19.856C70.3466 18.992 70.3946 18.26 70.4426 17.66L76.8506 17.768C76.7786 18.584 76.6946 19.508 76.5986 20.54C76.5266 21.572 76.4786 22.64 76.4546 23.744H70.2626ZM70.1186 49.52C70.0466 48.032 69.9986 46.448 69.9746 44.768C69.9506 43.064 69.9386 41.36 69.9386 39.656C69.9386 37.424 69.9626 35.252 70.0106 33.14C70.0586 31.028 70.1186 29.108 70.1906 27.38L76.3826 27.344C76.2866 28.448 76.2266 29.816 76.2026 31.448C76.1786 33.056 76.1666 34.748 76.1666 36.524C76.1666 38.276 76.1786 40.004 76.2026 41.708C76.2266 43.412 76.2506 44.96 76.2746 46.352C76.3226 47.72 76.3586 48.776 76.3826 49.52H70.1186ZM90.9868 23.924C90.9388 23.324 90.8788 22.604 90.8068 21.764C90.7588 20.924 90.7348 20.12 90.7348 19.352C90.7348 19.088 90.7348 18.824 90.7348 18.56C90.7588 18.272 90.7828 18.032 90.8068 17.84L97.0348 17.66C97.0348 17.852 97.0348 18.236 97.0348 18.812C97.0588 19.388 97.0708 20.024 97.0708 20.72C97.0948 21.416 97.1188 22.052 97.1428 22.628C97.1668 23.18 97.1788 23.552 97.1788 23.744L90.9868 23.924ZM88.7188 49.844C86.0308 49.844 83.8228 48.956 82.0948 47.18C80.3668 45.404 79.2028 42.86 78.6028 39.548L84.6868 37.748C84.6868 38.396 84.7588 39.08 84.9028 39.8C85.0708 40.52 85.3228 41.204 85.6588 41.852C85.9948 42.5 86.4148 43.028 86.9188 43.436C87.4228 43.82 87.9988 44.012 88.6468 44.012C89.5348 44.012 90.1828 43.796 90.5908 43.364C91.0228 42.932 91.2868 42.2 91.3828 41.168C91.4308 40.616 91.4668 39.992 91.4908 39.296C91.5148 38.576 91.5268 37.832 91.5268 37.064C91.5268 35.84 91.5028 34.616 91.4548 33.392C91.4068 32.144 91.3468 31.004 91.2748 29.972C91.2028 28.94 91.1068 28.148 90.9868 27.596L97.2868 27.416C97.3108 27.872 97.3348 28.616 97.3588 29.648C97.3828 30.656 97.4068 31.832 97.4308 33.176C97.4548 34.52 97.4668 35.912 97.4668 37.352C97.4668 38.24 97.4548 39.128 97.4308 40.016C97.4068 40.904 97.3588 41.732 97.2868 42.5C97.2148 43.292 97.0108 44.12 96.6748 44.984C96.3628 45.848 95.8708 46.64 95.1988 47.36C94.5268 48.104 93.6628 48.704 92.6068 49.16C91.5508 49.616 90.2548 49.844 88.7188 49.844ZM109.641 49.844C107.841 49.844 106.209 49.376 104.745 48.44C103.281 47.528 102.117 46.292 101.253 44.732C100.413 43.148 99.993 41.384 99.993 39.44C99.993 37.616 100.329 35.972 101.001 34.508C101.673 33.02 102.585 31.748 103.737 30.692C104.913 29.636 106.245 28.832 107.733 28.28C109.221 27.704 110.781 27.416 112.413 27.416C113.781 27.416 115.125 27.608 116.445 27.992C116.541 27.488 116.625 26.984 116.697 26.48L122.853 27.524C122.685 27.98 122.517 28.664 122.349 29.576C122.181 30.488 122.037 31.508 121.917 32.636C121.821 33.764 121.737 34.892 121.665 36.02C121.593 37.148 121.557 38.168 121.557 39.08C121.557 39.824 121.605 40.556 121.701 41.276C121.821 41.972 122.061 42.548 122.421 43.004C122.781 43.436 123.333 43.652 124.077 43.652H124.581L123.681 49.916C122.097 49.916 120.789 49.64 119.757 49.088C118.725 48.56 117.897 47.84 117.273 46.928C116.241 48.08 115.065 48.848 113.745 49.232C112.425 49.64 111.057 49.844 109.641 49.844ZM105.897 40.16C106.017 41.312 106.485 42.236 107.301 42.932C108.141 43.604 109.197 43.94 110.469 43.94C111.693 43.94 112.713 43.616 113.529 42.968C114.345 42.296 115.017 41.384 115.545 40.232C115.521 39.848 115.509 39.452 115.509 39.044C115.509 38.204 115.533 37.34 115.581 36.452C115.629 35.564 115.689 34.688 115.761 33.824C114.753 33.44 113.697 33.248 112.593 33.248C111.297 33.248 110.133 33.512 109.101 34.04C108.093 34.544 107.301 35.252 106.725 36.164C106.149 37.076 105.861 38.132 105.861 39.332C105.861 39.476 105.861 39.62 105.861 39.764C105.861 39.908 105.873 40.04 105.897 40.16ZM137.164 49.808C136.18 49.808 135.328 49.52 134.608 48.944C133.888 48.368 133.264 47.66 132.736 46.82C132.208 45.98 131.74 45.164 131.332 44.372C130.588 42.86 129.88 41.204 129.208 39.404C128.536 37.604 127.948 35.732 127.444 33.788C126.94 31.844 126.556 29.924 126.292 28.028L132.808 27.092C133 29.324 133.3 31.424 133.708 33.392C134.116 35.36 134.596 37.112 135.148 38.648C135.7 40.184 136.264 41.432 136.84 42.392C136.96 42.56 137.068 42.728 137.164 42.896C137.284 43.064 137.344 43.148 137.344 43.148C137.392 43.148 137.584 42.896 137.92 42.392C138.976 40.544 139.96 38.384 140.872 35.912C141.784 33.44 142.576 30.452 143.248 26.948L149.584 28.208C148.96 30.464 148.384 32.432 147.856 34.112C147.328 35.768 146.812 37.22 146.308 38.468C145.804 39.716 145.3 40.844 144.796 41.852C144.292 42.836 143.764 43.796 143.212 44.732C142.852 45.38 142.384 46.1 141.808 46.892C141.256 47.684 140.596 48.368 139.828 48.944C139.06 49.52 138.172 49.808 137.164 49.808ZM161.532 49.844C159.732 49.844 158.1 49.376 156.636 48.44C155.172 47.528 154.008 46.292 153.144 44.732C152.304 43.148 151.884 41.384 151.884 39.44C151.884 37.616 152.22 35.972 152.892 34.508C153.564 33.02 154.476 31.748 155.628 30.692C156.804 29.636 158.136 28.832 159.624 28.28C161.112 27.704 162.672 27.416 164.304 27.416C165.672 27.416 167.016 27.608 168.336 27.992C168.432 27.488 168.516 26.984 168.588 26.48L174.744 27.524C174.576 27.98 174.408 28.664 174.24 29.576C174.072 30.488 173.928 31.508 173.808 32.636C173.712 33.764 173.628 34.892 173.556 36.02C173.484 37.148 173.448 38.168 173.448 39.08C173.448 39.824 173.496 40.556 173.592 41.276C173.712 41.972 173.952 42.548 174.312 43.004C174.672 43.436 175.224 43.652 175.968 43.652H176.472L175.572 49.916C173.988 49.916 172.68 49.64 171.648 49.088C170.616 48.56 169.788 47.84 169.164 46.928C168.132 48.08 166.956 48.848 165.636 49.232C164.316 49.64 162.948 49.844 161.532 49.844ZM157.788 40.16C157.908 41.312 158.376 42.236 159.192 42.932C160.032 43.604 161.088 43.94 162.36 43.94C163.584 43.94 164.604 43.616 165.42 42.968C166.236 42.296 166.908 41.384 167.436 40.232C167.412 39.848 167.4 39.452 167.4 39.044C167.4 38.204 167.424 37.34 167.472 36.452C167.52 35.564 167.58 34.688 167.652 33.824C166.644 33.44 165.588 33.248 164.484 33.248C163.188 33.248 162.024 33.512 160.992 34.04C159.984 34.544 159.192 35.252 158.616 36.164C158.04 37.076 157.752 38.132 157.752 39.332C157.752 39.476 157.752 39.62 157.752 39.764C157.752 39.908 157.764 40.04 157.788 40.16Z" fill="#FFFCF1"/>
</svg>
